<svg xmlns="http://www.w3.org/2000/svg" viewBox="0 0 496.933 496.933" xml:space="preserve"><path style="fill:#a46f3e" d="M435.2 238.933c-25.446 0-47.607-13.952-59.349-34.603a86 86 0 0 1-8.917.469c-47.13 0-85.333-38.204-85.333-85.333 0-13.312 3.14-25.865 8.576-37.094C270.276 75.349 256 56.431 256 34.133c0-12.681 4.634-24.26 12.262-33.195C261.402.367 254.481 0 247.467 0 110.797 0 0 110.797 0 247.467s110.797 247.467 247.467 247.467 247.467-110.797 247.467-247.467c0-13.193-1.058-26.129-3.046-38.767-12.255 18.235-33.068 30.233-56.688 30.233" transform="translate(1.006 -2.06)scale(1.00617)"/><path style="fill:none;stroke:#a46f3e;stroke-width:2" d="M435.2 238.933c-25.446 0-47.607-13.952-59.349-34.603a86 86 0 0 1-8.917.469c-47.13 0-85.333-38.204-85.333-85.333 0-13.312 3.14-25.865 8.576-37.094C270.276 75.349 256 56.431 256 34.133c0-12.681 4.634-24.26 12.262-33.195C261.402.367 254.481 0 247.467 0 110.797 0 0 110.797 0 247.467s110.797 247.467 247.467 247.467 247.467-110.797 247.467-247.467c0-13.193-1.058-26.129-3.046-38.767-12.255 18.235-33.068 30.233-56.688 30.233z" transform="translate(1.006 -2.06)scale(1.00617)"/><path style="fill:#6a3311" d="M179.2 179.2c0-23.561-19.106-42.667-42.667-42.667S93.867 155.639 93.867 179.2s19.106 42.667 42.667 42.667S179.2 202.761 179.2 179.2" transform="translate(1.006 -2.06)scale(1.00617)"/><path style="fill:none;stroke:#6a3311;stroke-width:2" d="M179.2 179.2c0-23.561-19.106-42.667-42.667-42.667S93.867 155.639 93.867 179.2s19.106 42.667 42.667 42.667S179.2 202.761 179.2 179.2z" transform="translate(1.006 -2.06)scale(1.00617)"/><path style="fill:#6a3311" d="M179.2 358.4c0-18.85-15.283-34.133-34.133-34.133s-34.133 15.283-34.133 34.133 15.283 34.133 34.133 34.133S179.2 377.25 179.2 358.4" transform="translate(1.006 -2.06)scale(1.00617)"/><path style="fill:none;stroke:#6a3311;stroke-width:2" d="M179.2 358.4c0-18.85-15.283-34.133-34.133-34.133s-34.133 15.283-34.133 34.133 15.283 34.133 34.133 34.133S179.2 377.25 179.2 358.4z" transform="translate(1.006 -2.06)scale(1.00617)"/><path style="fill:#6a3311" d="M375.467 358.4c0-32.99-26.743-59.733-59.733-59.733S256 325.41 256 358.4s26.743 59.733 59.733 59.733 59.734-26.743 59.734-59.733" transform="translate(1.006 -2.06)scale(1.00617)"/><path style="fill:none;stroke:#6a3311;stroke-width:2" d="M375.467 358.4c0-32.99-26.743-59.733-59.733-59.733S256 325.41 256 358.4s26.743 59.733 59.733 59.733 59.734-26.743 59.734-59.733z" transform="translate(1.006 -2.06)scale(1.00617)"/><path style="fill:#6a3311" d="M283.803 100.388a86 86 0 0 1 6.374-18.014c-19.9-7.023-34.176-25.941-34.176-48.239 0-2.893.307-5.7.768-8.457-.265-.009-.503-.077-.768-.077-23.569 0-42.667 19.098-42.667 42.667 0 23.561 19.098 42.667 42.667 42.667 10.676 0 20.319-4.062 27.802-10.547" transform="translate(1.006 -2.06)scale(1.00617)"/><path style="fill:none;stroke:#6a3311;stroke-width:2" d="M283.803 100.388a86 86 0 0 1 6.374-18.014c-19.9-7.023-34.176-25.941-34.176-48.239 0-2.893.307-5.7.768-8.457-.265-.009-.503-.077-.768-.077-23.569 0-42.667 19.098-42.667 42.667 0 23.561 19.098 42.667 42.667 42.667 10.676 0 20.319-4.062 27.802-10.547z" transform="translate(1.006 -2.06)scale(1.00617)"/><path style="fill:#fff;fill-opacity:1;fill-rule:evenodd;stroke-width:.07880174" d="M237.3 287.633c-29.45 0-53.4-23.95-53.4-53.4s23.95-53.4 53.4-53.4 53.4 23.95 53.4 53.4-23.95 53.4-53.4 53.4m47.027-12.665c9.487-10.93 15.272-25.16 15.272-40.735 0-34.345-27.954-62.3-62.3-62.3-34.344 0-62.299 27.955-62.299 62.3s27.955 62.3 62.3 62.3c15.575 0 29.806-5.785 40.735-15.273l40.664 40.673 6.301-6.301z"/></svg>